# xmcd CD database file
#
# Track frame offsets:
#	150
#	16082
#	35900
#	61162
#	85422
#	98660
#	115650
#	132150
#	141935
#	157592
#	176117
#	185272
#	201677
#	216042
#	228302
#	257502
#	266102
#	286205
#	297980
#	314755
#	326427
#
# Disc length: 4474 seconds
#
# Revision: 0
# Processed by: cddbd v1.5.2PL0 Copyright (c) Steve Scherf et al.
# Submitted via: CDex 1.70beta2
#
DISCID=35117815
DTITLE=BETHLEHEM - 寺島靖国選曲ベツレヘム・コレクション 
DYEAR=1900
DGENRE=Jazz
TTITLE0=I CONCENTRATE ON YOU - CHRIS CONNOR
TTITLE1=CLOSE AS PAGES IN A BOOK - JIMMY KNEPPER
TTITLE2=LOVER COME BACK TO ME - FRANK ROSOLINO etc.
TTITLE3=KING FOR A DAY - CHARLIE MARIANO
TTITLE4=I SHOULD CARE - CHARLIE MARIANO
TTITLE5=TOPSY - HERBIE HARPER
TTITLE6=ISN’T IT ROMANTIC - MEL TORME
TTITLE7=YOU STEPPED OUT OF A DREAM - TERRY MOREL
TTITLE8=DON’T GET AROUND MUCH ANYMORE - STU WILLIAMSON
TTITLE9=HAPPY MINOR - RED MITCHELL
TTITLE10=MOON AND SAND - BETTY BLAKE
TTITLE11=I COVER THE WATERFRONT - BOB HARDAWAY
TTITLE12=　IT MIGHT AS WELL BE SPRING - JOE DERISE
TTITLE13=BERNIE’S TUNE - HANK D’AMICO
TTITLE14=AUTUMN IN NEW YORK - DEXTER GORDON
TTITLE15=MOUNTAIN GREENERY - PAULA CASTLE
TTITLE16=AVALON - ZOOT SIMS
TTITLE17=NIGHT FLIGHT - CONTE CANDOLI
TTITLE18=EMALINE - TERRY POLLARD
TTITLE19=A COTTAGE FOR SALE - CHRIS CONNOR
TTITLE20=THIS CAN’T BE LOVE - PAT MORAN
EXTD=
EXTT0=
EXTT1=
EXTT2=
EXTT3=
EXTT4=
EXTT5=
EXTT6=
EXTT7=
EXTT8=
EXTT9=
EXTT10=
EXTT11=
EXTT12=
EXTT13=
EXTT14=
EXTT15=
EXTT16=
EXTT17=
EXTT18=
EXTT19=
EXTT20=
PLAYORDER=
